<svg width="750px" height="555px" viewBox="-85.03019538188278 3.6376554174067337 682.0603907637656 504.72468916518653" class="css-np3qrs" style="position: absolute; top: 0px; left: 0px; width: 750px; height: 555px;"><style>#editor_f27ghff41_1 ._sw1{stroke-width:0.9094138543516874}#editor_f27ghff41_1 ._sw2{stroke-width:1.8188277087033748}#editor_f27ghff41_1 ._sd{stroke-dasharray:9.094 4.547}</style><defs><pattern id="o_f27ghff41_2" x="0" y="0" width="29.101243339253998" height="29.101243339253998" patternUnits="userSpaceOnUse" class="css-1e1xezv"><rect x="0" y="0" width="29.101243339253998" height="29.101243339253998"></rect><circle cx="0" cy="0" r="1.3641207815275311"></circle><circle cx="29.101243339253998" cy="0" r="1.3641207815275311"></circle><circle cx="29.101243339253998" cy="29.101243339253998" r="1.3641207815275311"></circle><circle cx="0" cy="29.101243339253998" r="1.3641207815275311"></circle></pattern></defs><rect fill="url(#o_f27ghff41_2)" stroke-width="0.9094138543516874" x="0" y="0" width="512" height="512" class="css-f3jo1l"></rect><svg xmlns="http://www.w3.org/2000/svg" width="512" height="512" style="overflow: visible;" viewBox="0 0 512 512" data-svgdocument="" id="_gF5iky7zhpYWQa0iTxeUw" class="fl-svgdocument" x="0" y="0" data-bbox="74.77408542262671 185.72778242110934 187.9384535937252 114.21995695115982"><rect data-uid="o_f27ghff41_4" data-fl-background="" x="0" y="0" width="512" height="512" fill="#e6f5e5"></rect><defs transform="matrix(0.7944615483283997, 0, 0, 0.7944615483283997, -40.93521499633789, 187.25025939941406)" data-uid="o_f27ghff41_5"></defs><g transform="matrix(0.8304198980331421, 0, 0, 0.8304198980331421, 56.75455856323242, 33.01486587524414)" data-uid="o_f27ghff41_6"><path d="M59.888 107.756h-5.675l0.016-0.001c0 0-0.012 0-0.028 0.001h-0.104c-0.747-0.013-4.443-0.332-4.443-5.418v1.422   L49.26 80.215c0.64-3.294 3.768-4.484 3.768-4.484l10.234-8.91c1.204-0.963-0.241-3.131-0.241-3.131   c-1.444-1.685-3.612-0.602-3.612-0.602s-2.769 2.408-4.575 3.372c-4.042 2.156-5.636-3.097-5.87-3.97L48.33 24.621   c0-2.826-0.846-5.117-3.672-5.117c-2.826 0-3.672 2.291-3.672 5.117l-0.388 23.182l0.027-4.099c0 0-0.535 6.562-4.937 4.214   c-1.806-0.963-4.575-3.372-4.575-3.372s-2.167-1.083-3.612 0.602c0 0-1.445 2.167-0.241 3.13l10.234 8.909   c0 0 2.317 1.165 2.884 3.717l-0.379 22.667c-0.604 1.744-2.031 4.235-5.036 2.633c-1.806-0.964-4.575-3.372-4.575-3.372   s-2.167-1.083-3.612 0.602c0 0-1.445 2.167-0.241 3.131l10.234 8.909c0 0 2.444 1.232 2.953 4.646l-0.07 4.17   c-1.031 3.463-4.927 3.464-4.927 3.464h-5.539c-2.194 0-3.973 1.779-3.973 3.974s1.779 3.973 3.973 3.973h30.702   c2.194 0 3.973-1.779 3.973-3.973S62.083 107.756 59.888 107.756z" stroke="none" fill="#404a46" transform="matrix(1.183720350265503, 0, 0, 1.183720350265503, 22.630590438842773, 183.893798828125)" stroke-width="1" data-uid="o_f27ghff41_7"></path><path d="M42.454 0.228c-4.298 0.588-10.409 3.112-15.141 7.777c-5.408 5.332-5.051 10.027-5.051 10.027   c0 4.165 2.705 5.725 4.574 6.105c0.886 0.181 3.619 0 3.619 0s4.374 0.116 4.374-4.596c0 0 0-6.17 8.865-6.17   c0 0 10.882-1.571 10.882 9.874v14.361c0 0-0.56 4.375 4.489 4.375c0 0 6.078 0.28 8.078 0c2.759-0.385 6.865-2.18 6.865-8.096   c0 0 0.836-16.24-7.842-24.297C56.159 0.3 48.257-0.565 42.454 0.228z" stroke="none" fill="#1c9941" transform="matrix(1.183720350265503, 0, 0, 1.183720350265503, 23.170488357543945, 184.49000549316406)" stroke-width="1" data-uid="o_f27ghff41_8"></path><path d="M25.037 39.196h4.093c0 0 3.059-0.667 3.059-4.037c0-1.793-4.983-7.103-15.687-5.828   c-4.33 0.516-13.082 4.125-14.526 14.021c-0.694 4.753 1.608 13.628 9.556 16.793c0 0 9.29 0.121 13.625 0   c0.71-0.02 1.662-0.917 1.686-2.288c0.013-0.736-0.48-2.183-1.806-2.528c-1.607-0.419-4.576-1.806-4.696-7.585v-1.926   C20.341 45.818 20.22 40.52 25.037 39.196z" stroke="none" fill="#1c9941" transform="matrix(1.183720350265503, 0, 0, 1.183720350265503, 23.050065994262695, 183.7379608154297)" stroke-width="1" data-uid="o_f27ghff41_9"></path><path d="M23.922 94.392c-1.659-0.432-4.723-1.864-4.848-7.829v-1.988c0 0-0.124-5.467 4.848-6.834h4.224   c0 0 3.158-0.688 3.158-4.167c0-1.851-5.143-7.33-16.19-6.016C10.644 68.09 1.611 71.816 0.12 82.03   c-0.715 4.905 1.661 14.066 9.864 17.332c0 0 9.588 0.124 14.062 0c0.733-0.021 1.716-0.946 1.739-2.361   C25.799 96.242 25.29 94.748 23.922 94.392z" stroke="none" fill="#1c9941" transform="matrix(1.183720350265503, 0, 0, 1.183720350265503, 22.291282653808594, 184.0677490234375)" stroke-width="1" data-uid="o_f27ghff41_10"></path><path d="M74.887 47.383c-11.047-1.315-16.19 4.165-16.19 6.015c0 3.479 3.158 4.167 3.158 4.167h4.224   c4.971 1.366 4.848 6.834 4.848 6.834v1.988c-0.125 5.966-3.189 7.397-4.848 7.829c-1.368 0.357-1.877 1.85-1.863 2.609   c0.023 1.415 1.006 2.34 1.739 2.361c4.474 0.124 14.062 0 14.062 0c8.203-3.267 10.579-12.427 9.864-17.333   C88.389 51.641 79.356 47.915 74.887 47.383z" stroke="none" fill="#1c9941" transform="matrix(1.183720350265503, 0, 0, 1.183720350265503, 22.649574279785156, 184.27528381347656)" stroke-width="1" data-uid="o_f27ghff41_11"></path></g><path id="_VeJDs572SUOh1EKprQBTg" fill="#404a46" transform="matrix(0.6504735946655273, 0, 0, 0.6504735946655273, 126.04803466796875, 299.55743408203125)" text="man" text-anchor="start" font-size="100" letter-spacing="0" side="left" offset="0" dx="0" dy="0" space="preserve" href="" font-family="Coiny" font-scale="contain" x="0" y="0" data-fl-textpath="" data-uid="o_f27ghff41_12" d="M 63.9-8.3L 63.9-26.4Q 63.9-32  59.4-32L 59.4-32Q 57.4-32  56.4-29.7Q 55.4-27.4  55.4-23.9L 55.4-23.9Q 55.4-18.6  55.25-15.1Q 55.1-11.6  54.6-8.8Q 54.1-6  53.4-4.4Q 52.7-2.8  51.5-1.75Q 50.3-0.7  48.8-0.35Q 47.3 0  45 0L 45 0Q 41.5 0  39.35-1Q 37.2-2  36.3-3.8Q 35.4-5.6  35.4-8.3L 35.4-8.3L 35.4-26.4Q 35.4-32  30.9-32L 30.9-32Q 29.1-32  27.95-29.95Q 26.8-27.9  26.8-24.6L 26.8-24.6L 26.8-10.7Q 26.8-4.7  24.3-2.35Q 21.8 0  15.5 0L 15.5 0Q 9.6 0  7.45-2.75Q 5.3-5.5  5.3-11.8L 5.3-11.8L 5.3-36.4Q 5.3-41.5  8.05-44.6Q 10.8-47.7  15.4-47.7L 15.4-47.7Q 23.6-47.7  25.8-42.4L 25.8-42.4Q 29.6-45.2  33.25-46.3Q 36.9-47.4  41.8-47.4L 41.8-47.4Q 49.2-47.4  52.5-41L 52.5-41Q 53-41.4  53.5-41.8L 53.5-41.8Q 61.2-47.4  72.4-47.4L 72.4-47.4Q 79.5-47.4  82.6-42Q 85.7-36.6  85.7-23.9L 85.7-23.9Q 85.7-18.6  85.55-15.1Q 85.4-11.6  84.9-8.8Q 84.4-6  83.65-4.4Q 82.9-2.8  81.55-1.75Q 80.2-0.7  78.55-0.35Q 76.9 0  74.4 0L 74.4 0Q 70.6 0  68.25-1Q 65.9-2  64.9-3.8Q 63.9-5.6  63.9-8.3L 63.9-8.3ZM 113 0.6L 113 0.6Q 105.1 0.6  99.9-5.85Q 94.7-12.3  94.7-23.5L 94.7-23.5Q 94.7-34.9  99.85-41.65Q 105-48.4  113-48.4L 113-48.4Q 121.1-48.4  128-42.7L 128-42.7Q 130.7-47.7  136.7-47.7L 136.7-47.7Q 142.1-47.7  145.1-45.35Q 148.1-43  148.1-36.7L 148.1-36.7L 148.1-10.7Q 148.1-4.7  145.6-2.35Q 143.1 0  136.8 0L 136.8 0Q 130.2 0  128.1-3.7L 128.1-3.7Q 121.7 0.6  113 0.6ZM 126.6-14.4L 126.6-33.1Q 124.9-36  122.2-36L 122.2-36Q 119.6-36  118-32.2Q 116.4-28.4  116.4-23.5L 116.4-23.5Q 116.4-18.9  117.9-15.3Q 119.4-11.7  122.1-11.7L 122.1-11.7Q 124.9-11.7  126.6-14.4L 126.6-14.4ZM 188.3-8.3L 188.2-26.9Q 188.2-32.5  183.8-32.5L 183.8-32.5Q 181.70000000000002-32.5  180.35-30.75Q 179-29  178.8-26.1L 178.8-26.1L 178.8-10.7Q 178.8-4.6  176.3-2.3Q 173.8 0  167.5 0L 167.5 0Q 161.6 0  159.45000000000002-2.75Q 157.3-5.5  157.3-11.8L 157.3-11.8L 157.3-36.4Q 157.3-41.5  160.05-44.6Q 162.8-47.7  167.4-47.7L 167.4-47.7Q 171.20000000000002-47.7  173.8-46.6Q 176.4-45.5  177.70000000000002-42.8L 177.70000000000002-42.8Q 185.5-47.9  196.7-47.9L 196.7-47.9Q 203.8-47.9  206.95-42.3Q 210.10000000000002-36.7  210.10000000000002-23.9L 210.10000000000002-23.9Q 210.10000000000002-17.6  209.8-13.65Q 209.5-9.7  208.85000000000002-6.85Q 208.2-4  206.8-2.6Q 205.4-1.2  203.55-0.6Q 201.7 0  198.8 0L 198.8 0Q 193.2 0  190.75-2.1Q 188.3-4.2  188.3-8.3L 188.3-8.3Z"></path></svg><path d="M-85.03019538188278 3.6376554174067337h682.0603907637656v504.72468916518653h-682.0603907637656z M0 0v512h512v-512z" class="css-1m35ybi" style=""></path><g class="css-0" style=""><path class="_sw1 css-jzojre" d="M-0.0000011263524584137485 -5.379594654186803e-7L -0.0000011263524584137485 -5.379594654186803e-7L-0.0000011263524584137485 -5.379594654186803e-7L-0.0000011263524584137485 -5.379594654186803e-7 Z" fill="transparent" stroke="red"></path><path class="_sw1 css-jzojre" d="M-40.93521499633789 187.25025939941406L -40.93521499633789 187.25025939941406L-40.93521499633789 187.25025939941406L-40.93521499633789 187.25025939941406 Z" fill="transparent" stroke="red"></path><path class="_sw1 css-jzojre" d="M74.77408671600561 185.7277933823108L 164.52443956356137 185.7277933823108L164.52443956356137 299.9477585317814L74.77408671600561 299.9477585317814 Z" fill="transparent" stroke="red"></path></g><g class="css-1ypmc9g"><defs><pattern id="pattern-scalebox" x="0" y="0" width="100%" height="100%" class="css-1ih203j"><circle cx="10.912966252220249" cy="10.912966252220249" r="5.001776198934281" stroke-width="1.8188277087033748"></circle></pattern><pattern id="pattern-rotatebox" x="0" y="0" width="100%" height="100%" class="css-1euzmv4"><path transform="scale(0.9094138543516874) translate(5, 10.5)" d="M18,13c0,3.31-2.69,6-6,6s-6-2.69-6-6s2.69-6,6-6v2.5l3.5-3.5l-3.5-3.5v2.5c-4.42,0-8,3.58-8,8c0,4.42,3.58,8,8,8c4.42,0,8-3.58,8-8 H18z"></path></pattern></defs><path d="M191.55697265829954 284.0111141769812 L200.6511112018164 284.0111141769812 M196.10404193005797 279.46404490522275 L196.10404193005797 288.55818344873967" stroke-width="0.9094138543516874" class="css-1ixbp0l"></path><path class="_sw2" fill="transparent" d="M129.49554484376404 268.0745111076758 L262.7125390163519 268.0745111076758 L262.7125390163519 299.94771724628663 L129.49554484376404 299.94771724628663Z"></path><rect data-handle="nw" class="se css-n4pqaj" transform="rotate(0,129.49554484376404,268.0745111076758)" x="118.5825785915438" y="257.16154485545553" width="21.825932504440498" height="21.825932504440498"></rect><g transform="matrix(1, 0, 0, 1, 0, 0)" class="css-u2lqgb"><line class="noevent" x1="196.10404193005797" y1="268.0745111076758" x2="196.10404193005797" y2="253.5238894380488" stroke-width="1.8188277087033748"></line><rect fill="transparent" x="181.55342026043098" y="224.42264609879481" width="29.101243339253998" height="43.65186500888099"></rect></g><rect data-handle="n" class="s css-n4pqaj" transform="rotate(0,196.10404193005797,268.0745111076758)" x="185.19107567783772" y="257.16154485545553" width="21.825932504440498" height="21.825932504440498"></rect><rect data-handle="ne" class="sw css-n4pqaj" transform="rotate(0,262.7125390163519,268.0745111076758)" x="251.79957276413165" y="257.16154485545553" width="21.825932504440498" height="21.825932504440498"></rect><rect data-handle="e" class="w css-n4pqaj" transform="rotate(0,262.7125390163519,284.0111141769812)" x="251.79957276413165" y="273.09814792476095" width="21.825932504440498" height="21.825932504440498"></rect><rect data-handle="se" class="nw css-n4pqaj" transform="rotate(0,262.7125390163519,299.94771724628663)" x="251.79957276413165" y="289.03475099406637" width="21.825932504440498" height="21.825932504440498"></rect><rect data-handle="s" class="n css-n4pqaj" transform="rotate(0,196.10404193005797,299.94771724628663)" x="185.19107567783772" y="289.03475099406637" width="21.825932504440498" height="21.825932504440498"></rect><rect data-handle="sw" class="ne css-n4pqaj" transform="rotate(0,129.49554484376404,299.94771724628663)" x="118.5825785915438" y="289.03475099406637" width="21.825932504440498" height="21.825932504440498"></rect><rect data-handle="w" class="e css-n4pqaj" transform="rotate(0,129.49554484376404,284.0111141769812)" x="118.5825785915438" y="273.09814792476095" width="21.825932504440498" height="21.825932504440498"></rect></g><g class="css-0"></g></svg>