<svg width="114" height="76" viewBox="0 0 114 76" fill="none" xmlns="http://www.w3.org/2000/svg">
<path d="M33.7384 69.8071H30.508L30.5171 69.8064C30.5171 69.8064 30.5102 69.8064 30.5011 69.8071H30.4419C30.0167 69.7985 27.9128 69.5895 27.9128 66.2568V67.1886L27.6885 51.7602C28.0528 49.6018 29.8334 48.822 29.8334 48.822L35.659 42.9835C36.3444 42.3525 35.5218 40.9319 35.5218 40.9319C34.6999 39.8277 33.4657 40.5374 33.4657 40.5374C33.4657 40.5374 31.8895 42.1153 30.8615 42.747C28.5606 44.1597 27.6532 40.7176 27.52 40.1455L27.1591 15.3311C27.1591 13.4793 26.6776 11.978 25.0689 11.978C23.4602 11.978 22.9786 13.4793 22.9786 15.3311L22.7578 30.5216L22.7731 27.8356C22.7731 27.8356 22.4686 32.1355 19.9628 30.5969C18.9347 29.9659 17.3585 28.3873 17.3585 28.3873C17.3585 28.3873 16.125 27.6777 15.3024 28.7818C15.3024 28.7818 14.4799 30.2018 15.1652 30.8328L20.9908 36.6706C20.9908 36.6706 22.3098 37.434 22.6325 39.1063L22.4168 53.9593C22.073 55.1021 21.2607 56.7344 19.5501 55.6847C18.522 55.053 16.9458 53.4751 16.9458 53.4751C16.9458 53.4751 15.7123 52.7654 14.8897 53.8695C14.8897 53.8695 14.0672 55.2895 14.7525 55.9212L20.5781 61.759C20.5781 61.759 21.9694 62.5663 22.2591 64.8034L22.2193 67.5359C21.6324 69.8051 19.4146 69.8058 19.4146 69.8058H16.2616C15.0127 69.8058 14 70.9715 14 72.4098C14 73.8481 15.0127 75.0132 16.2616 75.0132H33.7384C34.9873 75.0132 36 73.8475 36 72.4098C36 70.9721 34.9879 69.8071 33.7384 69.8071Z" fill="#D6D6B1"/>
<path d="M23.923 0.401145C21.5985 0.790109 18.2935 2.45974 15.7343 5.54566C12.8096 9.0728 13.0026 12.1786 13.0026 12.1786C13.0026 14.9337 14.4656 15.9657 15.4764 16.217C15.9555 16.3368 17.4336 16.217 17.4336 16.217C17.4336 16.217 19.7992 16.2938 19.7992 13.1768C19.7992 13.1768 19.7992 9.09529 24.5936 9.09529C24.5936 9.09529 30.4789 8.05607 30.4789 15.627V25.1268C30.4789 25.1268 30.176 28.0209 32.9066 28.0209C32.9066 28.0209 36.1938 28.2061 37.2754 28.0209C38.7676 27.7662 40.9882 26.5788 40.9882 22.6654C40.9882 22.6654 41.4403 11.9226 36.747 6.59282C31.335 0.448773 27.0614 -0.123428 23.923 0.401145Z" fill="#55B234"/>
<path d="M13.9913 25.4797H16.2854C16.2854 25.4797 18 25.0705 18 23.003C18 21.903 15.207 18.6454 9.20734 19.4276C6.78035 19.7441 1.8748 21.9582 1.06543 28.0294C0.676442 30.9453 1.96673 36.3901 6.42163 38.3318C6.42163 38.3318 11.6287 38.406 14.0585 38.3318C14.4565 38.3195 14.9901 37.7692 15.0035 36.9281C15.0108 36.4766 14.7345 35.5888 13.9913 35.3772C13.0905 35.1201 11.4264 34.2692 11.3591 30.7238V29.5422C11.3591 29.5422 11.2913 26.292 13.9913 25.4797Z" fill="#55B234"/>
<path d="M12.9911 61.5348C12.0902 61.2583 10.4263 60.3416 10.3584 56.5232V55.2506C10.3584 55.2506 10.291 51.751 12.9911 50.8759H15.285C15.285 50.8759 17 50.4355 17 48.2084C17 47.0235 14.207 43.5162 8.20786 44.3574C5.78039 44.6979 0.874927 47.0831 0.0652247 53.6214C-0.323063 56.7613 0.967247 62.6256 5.42197 64.7163C5.42197 64.7163 10.6288 64.7957 13.0585 64.7163C13.4565 64.7029 13.9904 64.1107 14.0029 63.2049C14.0105 62.7191 13.734 61.7627 12.9911 61.5348Z" fill="#55B234"/>
<path d="M41.7921 31.1642C35.793 30.3224 33 33.8304 33 35.0147C33 37.2418 34.715 37.6822 34.715 37.6822H37.0089C39.7084 38.5567 39.6416 42.057 39.6416 42.057V43.3296C39.5737 47.1488 37.9098 48.0649 37.0089 48.3414C36.266 48.5699 35.9895 49.5257 35.9971 50.0116C36.0096 50.9174 36.5435 51.5095 36.9415 51.523C39.3712 51.6023 44.578 51.523 44.578 51.523C49.0328 49.4316 50.3231 43.5678 49.9348 40.4272C49.1245 33.8899 44.2191 31.5047 41.7921 31.1642Z" fill="#55B234"/>
<path d="M55.1484 71.2074V63.4677C55.1484 61.8713 54.5446 61.0731 53.337 61.0731C52.8003 61.0731 52.3977 61.4009 52.1294 62.0566C51.861 62.7122 51.7268 63.5389 51.7268 64.5367C51.7268 66.0476 51.7067 67.3019 51.6664 68.2996C51.6262 69.2974 51.539 70.1954 51.4048 70.9936C51.2706 71.7918 51.1096 72.4189 50.9218 72.875C50.7339 73.3311 50.479 73.7089 50.1569 74.0082C49.8349 74.3075 49.4726 74.5071 49.0701 74.6068C48.6675 74.7066 48.1576 74.7565 47.5404 74.7565C46.6012 74.7565 45.843 74.614 45.2661 74.3289C44.6891 74.0438 44.2798 73.6447 44.0383 73.1316C43.7968 72.6185 43.676 71.9771 43.676 71.2074V63.4677C43.676 61.8713 43.0722 61.0731 41.8646 61.0731C41.3815 61.0731 40.9857 61.3653 40.6771 61.9497C40.3685 62.5341 40.2142 63.2966 40.2142 64.2374V70.1811C40.2142 71.8915 39.8787 73.0817 39.2078 73.7516C38.5369 74.4215 37.3561 74.7565 35.6655 74.7565C34.0822 74.7565 33.002 74.3645 32.425 73.5806C31.8481 72.7966 31.5596 71.5067 31.5596 69.7107V59.1916C31.5596 57.7377 31.9286 56.5689 32.6666 55.6852C33.4045 54.8015 34.3908 54.3596 35.6252 54.3596C37.8258 54.3596 39.2213 55.1151 39.8116 56.6259C40.8314 55.8277 41.8311 55.2719 42.8106 54.9583C43.7901 54.6447 44.9373 54.4879 46.2523 54.4879C48.2381 54.4879 49.6739 55.4001 50.5595 57.2246C50.6936 57.1106 50.8278 56.9965 50.962 56.8825C53.0284 55.2861 55.5644 54.4879 58.57 54.4879C60.4754 54.4879 61.844 55.2576 62.6759 56.797C63.5078 58.3364 63.9238 60.9163 63.9238 64.5367C63.9238 66.0476 63.9037 67.3019 63.8634 68.2996C63.8232 69.2974 63.7359 70.1954 63.6018 70.9936C63.4676 71.7918 63.2999 72.4189 63.0986 72.875C62.8973 73.3311 62.6155 73.7089 62.2533 74.0082C61.891 74.3075 61.4884 74.5071 61.0456 74.6068C60.6028 74.7066 60.046 74.7565 59.3751 74.7565C58.3553 74.7565 57.5301 74.614 56.8995 74.3289C56.2688 74.0438 55.8193 73.6447 55.551 73.1316C55.2826 72.6185 55.1484 71.9771 55.1484 71.2074ZM74.9131 75.0131C72.7931 75.0131 71.0353 74.0937 69.6399 72.255C68.2444 70.4163 67.5467 67.9005 67.5467 64.7077C67.5467 61.4579 68.2377 58.8709 69.6197 56.9467C71.0018 55.0224 72.7663 54.0603 74.9131 54.0603C77.0869 54.0603 79.0996 54.8728 80.9512 56.4977C81.6758 55.0723 82.8432 54.3596 84.4533 54.3596C85.9025 54.3596 87.0296 54.6946 87.8347 55.3645C88.6398 56.0344 89.0423 57.2674 89.0423 59.0633V70.1811C89.0423 71.8915 88.7069 73.0817 88.0359 73.7516C87.3651 74.4215 86.1843 74.7565 84.4936 74.7565C82.7224 74.7565 81.5551 74.2291 80.9915 73.1744C79.274 74.4002 77.2479 75.0131 74.9131 75.0131ZM80.3877 68.599V60.6027C79.9315 59.776 79.3411 59.3626 78.6165 59.3626C77.9188 59.3626 77.3552 59.9043 76.9258 60.9875C76.4965 62.0708 76.2818 63.3109 76.2818 64.7077C76.2818 66.0191 76.483 67.1878 76.8856 68.2141C77.2881 69.2404 77.8517 69.7535 78.5763 69.7535C79.3277 69.7535 79.9315 69.3686 80.3877 68.599ZM105.224 71.2074L105.184 63.2539C105.184 61.6575 104.594 60.8593 103.413 60.8593C102.849 60.8593 102.387 61.1087 102.024 61.6076C101.662 62.1064 101.454 62.7692 101.4 63.5959V70.1811C101.4 71.92 101.065 73.1173 100.394 73.773C99.723 74.4287 98.5422 74.7565 96.8516 74.7565C95.2683 74.7565 94.1881 74.3645 93.6111 73.5806C93.0342 72.7966 92.7457 71.5067 92.7457 69.7107V59.1916C92.7457 57.7377 93.1147 56.5689 93.8527 55.6852C94.5906 54.8015 95.5769 54.3596 96.8113 54.3596C97.8311 54.3596 98.6898 54.5164 99.3876 54.83C100.085 55.1436 100.609 55.6852 100.957 56.4549C103.051 55.001 105.6 54.2741 108.606 54.2741C110.511 54.2741 111.886 55.0723 112.732 56.6687C113.577 58.2651 114 60.8878 114 64.5367C114 66.3326 113.96 67.7936 113.879 68.9197C113.799 70.0457 113.671 71.0149 113.497 71.8274C113.322 72.6398 113.047 73.2456 112.671 73.6447C112.296 74.0438 111.86 74.3289 111.363 74.4999C110.867 74.671 110.229 74.7565 109.451 74.7565C107.948 74.7565 106.868 74.4572 106.211 73.8585C105.553 73.2599 105.224 72.3762 105.224 71.2074Z" fill="#D6D6B1"/>
</svg>
