<svg width="114" height="69" viewBox="0 0 114 69" fill="none" xmlns="http://www.w3.org/2000/svg">
<path d="M33.7384 63.758H30.508L30.5171 63.7574C30.5171 63.7574 30.5102 63.7574 30.5011 63.758H30.4419C30.0167 63.7503 27.9128 63.5598 27.9128 60.5233V61.3723L27.6885 47.3153C28.0528 45.3487 29.8334 44.6382 29.8334 44.6382L35.659 39.3187C36.3444 38.7437 35.5218 37.4494 35.5218 37.4494C34.6999 36.4434 33.4657 37.09 33.4657 37.09C33.4657 37.09 31.8895 38.5276 30.8615 39.1032C28.5606 40.3904 27.6532 37.2542 27.52 36.733L27.1591 14.1241C27.1591 12.4369 26.6776 11.0691 25.0689 11.0691C23.4602 11.0691 22.9786 12.4369 22.9786 14.1241L22.7578 27.9644L22.7731 25.5172C22.7731 25.5172 22.4686 29.4349 19.9628 28.0331C18.9347 27.4581 17.3585 26.0199 17.3585 26.0199C17.3585 26.0199 16.125 25.3733 15.3024 26.3793C15.3024 26.3793 14.4799 27.673 15.1652 28.248L20.9908 33.5669C20.9908 33.5669 22.3098 34.2625 22.6325 35.7861L22.4168 49.3189C22.073 50.3601 21.2607 51.8473 19.5501 50.8909C18.522 50.3154 16.9458 48.8777 16.9458 48.8777C16.9458 48.8777 15.7123 48.2311 14.8897 49.2371C14.8897 49.2371 14.0672 50.5309 14.7525 51.1064L20.5781 56.4253C20.5781 56.4253 21.9694 57.1609 22.2591 59.1991L22.2193 61.6887C21.6324 63.7563 19.4146 63.7568 19.4146 63.7568H16.2616C15.0127 63.7568 14 64.819 14 66.1294C14 67.4399 15.0127 68.5014 16.2616 68.5014H33.7384C34.9873 68.5014 36 67.4393 36 66.1294C36 64.8196 34.9879 63.758 33.7384 63.758Z" fill="#D6D6B1"/>
<path d="M23.923 0.521298C21.5985 0.87569 18.2935 2.39692 15.7343 5.20855C12.8096 8.42218 13.0026 11.2519 13.0026 11.2519C13.0026 13.7622 14.4656 14.7024 15.4764 14.9314C15.9555 15.0405 17.4336 14.9314 17.4336 14.9314C17.4336 14.9314 19.7992 15.0013 19.7992 12.1614C19.7992 12.1614 19.7992 8.44267 24.5936 8.44267C24.5936 8.44267 30.4789 7.49582 30.4789 14.3938V23.0493C30.4789 23.0493 30.176 25.6861 32.9066 25.6861C32.9066 25.6861 36.1938 25.8549 37.2754 25.6861C38.7676 25.4541 40.9882 24.3722 40.9882 20.8066C40.9882 20.8066 41.4403 11.0186 36.747 6.16263C31.335 0.564694 27.0614 0.0433522 23.923 0.521298Z" fill="#55B234"/>
<path d="M13.9913 23.3708H16.2854C16.2854 23.3708 18 22.998 18 21.1142C18 20.112 15.207 17.1439 9.20734 17.8566C6.78035 18.145 1.8748 20.1623 1.06543 25.6938C0.676442 28.3506 1.96673 33.3114 6.42163 35.0805C6.42163 35.0805 11.6287 35.1482 14.0585 35.0805C14.4565 35.0693 14.9901 34.5679 15.0035 33.8016C15.0108 33.3902 14.7345 32.5814 13.9913 32.3885C13.0905 32.1543 11.4264 31.3791 11.3591 28.1488V27.0722C11.3591 27.0722 11.2913 24.1109 13.9913 23.3708Z" fill="#55B234"/>
<path d="M12.9911 56.2212C12.0902 55.9692 10.4263 55.134 10.3584 51.655V50.4955C10.3584 50.4955 10.291 47.3069 12.9911 46.5097H15.285C15.285 46.5097 17 46.1084 17 44.0793C17 42.9997 14.207 39.8042 8.20786 40.5705C5.78039 40.8808 0.874927 43.054 0.0652247 49.0112C-0.323063 51.872 0.967247 57.215 5.42197 59.1199C5.42197 59.1199 10.6288 59.1922 13.0585 59.1199C13.4565 59.1076 13.9904 58.5681 14.0029 57.7429C14.0105 57.3002 13.734 56.4288 12.9911 56.2212Z" fill="#55B234"/>
<path d="M41.7921 28.5499C35.793 27.7829 33 30.9792 33 32.0582C33 34.0873 34.715 34.4886 34.715 34.4886H37.0089C39.7084 35.2853 39.6416 38.4746 39.6416 38.4746V39.6341C39.5737 43.1138 37.9098 43.9484 37.0089 44.2004C36.266 44.4086 35.9895 45.2794 35.9971 45.7221C36.0096 46.5474 36.5435 47.0869 36.9415 47.0991C39.3712 47.1715 44.578 47.0991 44.578 47.0991C49.0328 45.1936 50.3231 39.851 49.9348 36.9896C49.1245 31.0334 44.2191 28.8602 41.7921 28.5499Z" fill="#55B234"/>
<path d="M55.1484 65.0338V57.9821C55.1484 56.5276 54.5446 55.8003 53.337 55.8003C52.8003 55.8003 52.3977 56.099 52.1294 56.6964C51.861 57.2938 51.7268 58.047 51.7268 58.9561C51.7268 60.3327 51.7067 61.4755 51.6664 62.3846C51.6262 63.2936 51.539 64.1118 51.4048 64.839C51.2706 65.5663 51.1096 66.1377 50.9218 66.5533C50.7339 66.9689 50.479 67.313 50.1569 67.5857C49.8349 67.8584 49.4726 68.0403 49.0701 68.1312C48.6675 68.2221 48.1576 68.2675 47.5404 68.2675C46.6012 68.2675 45.843 68.1377 45.2661 67.8779C44.6891 67.6182 44.2798 67.2546 44.0383 66.787C43.7968 66.3195 43.676 65.7351 43.676 65.0338V57.9821C43.676 56.5276 43.0722 55.8003 41.8646 55.8003C41.3815 55.8003 40.9857 56.0666 40.6771 56.599C40.3685 57.1315 40.2142 57.8262 40.2142 58.6834V64.0988C40.2142 65.6572 39.8787 66.7416 39.2078 67.352C38.5369 67.9623 37.3561 68.2675 35.6655 68.2675C34.0822 68.2675 33.002 67.9104 32.425 67.1961C31.8481 66.4819 31.5596 65.3066 31.5596 63.6702V54.0861C31.5596 52.7614 31.9286 51.6965 32.6666 50.8914C33.4045 50.0862 34.3908 49.6836 35.6252 49.6836C37.8258 49.6836 39.2213 50.3719 39.8116 51.7485C40.8314 51.0212 41.8311 50.5148 42.8106 50.229C43.7901 49.9433 44.9373 49.8005 46.2523 49.8005C48.2381 49.8005 49.6739 50.6316 50.5595 52.2939C50.6936 52.19 50.8278 52.0861 50.962 51.9822C53.0284 50.5277 55.5644 49.8005 58.57 49.8005C60.4754 49.8005 61.844 50.5018 62.6759 51.9043C63.5078 53.3069 63.9238 55.6575 63.9238 58.9561C63.9238 60.3327 63.9037 61.4755 63.8634 62.3846C63.8232 63.2936 63.7359 64.1118 63.6018 64.839C63.4676 65.5663 63.2999 66.1377 63.0986 66.5533C62.8973 66.9689 62.6155 67.313 62.2533 67.5857C61.891 67.8584 61.4884 68.0403 61.0456 68.1312C60.6028 68.2221 60.046 68.2675 59.3751 68.2675C58.3553 68.2675 57.5301 68.1377 56.8995 67.8779C56.2688 67.6182 55.8193 67.2546 55.551 66.787C55.2826 66.3195 55.1484 65.7351 55.1484 65.0338ZM74.9131 68.5013C72.7931 68.5013 71.0353 67.6636 69.6399 65.9884C68.2444 64.3131 67.5467 62.0209 67.5467 59.1119C67.5467 56.151 68.2377 53.7939 69.6197 52.0407C71.0018 50.2875 72.7663 49.4109 74.9131 49.4109C77.0869 49.4109 79.0996 50.1511 80.9512 51.6316C81.6758 50.3329 82.8432 49.6836 84.4533 49.6836C85.9025 49.6836 87.0296 49.9888 87.8347 50.5992C88.6398 51.2095 89.0423 52.3329 89.0423 53.9692V64.0988C89.0423 65.6572 88.7069 66.7416 88.036 67.352C87.365 67.9623 86.1843 68.2675 84.4936 68.2675C82.7224 68.2675 81.5551 67.787 80.9915 66.826C79.274 67.9429 77.2479 68.5013 74.9131 68.5013ZM80.3877 62.6573V55.3718C79.9315 54.6185 79.3411 54.2419 78.6165 54.2419C77.9188 54.2419 77.3552 54.7354 76.9258 55.7224C76.4965 56.7094 76.2818 57.8392 76.2818 59.1119C76.2818 60.3067 76.483 61.3716 76.8856 62.3066C77.2881 63.2417 77.8517 63.7092 78.5763 63.7092C79.3277 63.7092 79.9315 63.3586 80.3877 62.6573ZM105.224 65.0338L105.184 57.7873C105.184 56.3328 104.594 55.6055 103.413 55.6055C102.849 55.6055 102.387 55.8328 102.024 56.2873C101.662 56.7419 101.454 57.3457 101.4 58.099V64.0988C101.4 65.6832 101.065 66.7741 100.394 67.3714C99.723 67.9688 98.5422 68.2675 96.8516 68.2675C95.2683 68.2675 94.1881 67.9104 93.6111 67.1961C93.0342 66.4819 92.7457 65.3066 92.7457 63.6702V54.0861C92.7457 52.7614 93.1147 51.6965 93.8527 50.8914C94.5906 50.0862 95.5769 49.6836 96.8113 49.6836C97.8311 49.6836 98.6898 49.8265 99.3876 50.1122C100.085 50.3979 100.609 50.8914 100.957 51.5926C103.051 50.268 105.6 49.6057 108.606 49.6057C110.511 49.6057 111.886 50.3329 112.732 51.7874C113.577 53.242 114 55.6315 114 58.9561C114 60.5924 113.96 61.9235 113.879 62.9495C113.799 63.9754 113.671 64.8585 113.497 65.5988C113.322 66.339 113.047 66.8909 112.671 67.2546C112.296 67.6182 111.86 67.8779 111.363 68.0338C110.867 68.1896 110.229 68.2675 109.451 68.2675C107.948 68.2675 106.868 67.9948 106.211 67.4494C105.553 66.9039 105.224 66.0987 105.224 65.0338Z" fill="#D6D6B1"/>
</svg>
